# xmcd CD database file
#
# Track frame offsets:
#	180
#	12824
#	26079
#	39867
#	48244
#	61090
#	73487
#	84836
#	97012
#	110436
#	119853
#	138659
#	152735
#	168743
#	183325
#	196502
#
# Disc length: 2800 seconds
#
# Revision: 0
# Processed by: cddbd v1.5.2PL0 Copyright (c) Steve Scherf et al.
# Submitted via: CDex 1.51
#
DISCID=d70aee10
DTITLE=Various Artist - Golden Hits Of Jazz
DYEAR=1900
DGENRE=Jazz
TTITLE0=Johnnie Ray - (Here Am I) Broken Heartet
TTITLE1=Les Baxter - Blue Tango
TTITLE2=The Hellioppers - From The Vine Came The Grape
TTITLE3=Dean Martin - I Don't Care If The Sun Don't Shine
TTITLE4=Mel Torme - Makin' Whoopee
TTITLE5=Guy Mitchell - My Heart Cries For You
TTITLE6=Frankie Laine - Dome Day
TTITLE7=Frank Sinatra - There Are Things
TTITLE8=Dean Martin - You Belong To Me
TTITLE9=Benny Goodman - Alexander's Rag Time Band
TTITLE10=Jack Teagarden - Davenport Blues
TTITLE11=Rosemary Clooney - My Old Flame
TTITLE12=The Oscar Peterson Trio (O.Peterson, R.Brown, B.Kessel) - Feat. Buddy Rich On Drums - Sweet Georgia Brown
TTITLE13=Jo Stafford - Over The Rainbow
TTITLE14=Vaughn Monroe - Red Roses For A Blue Lady
TTITLE15=Patti Page - Tennessee Waltz
EXTD=
EXTT0=
EXTT1=
EXTT2=
EXTT3=
EXTT4=
EXTT5=
EXTT6=
EXTT7=
EXTT8=
EXTT9=
EXTT10=
EXTT11=
EXTT12=
EXTT13=
EXTT14=
EXTT15=
PLAYORDER=
